<svg width="409" height="234" viewBox="0 0 409 234" fill="none" xmlns="http://www.w3.org/2000/svg">
<g opacity="0.6">
<g opacity="0.1">
<rect width="63.715" height="37.1214" rx="18.5607" transform="matrix(-0.720068 -0.693903 0.7198 -0.694182 69.5359 108.416)" fill="#5D3BEE"/>
<rect width="168.404" height="37.1214" rx="18.5607" transform="matrix(-0.720068 -0.693903 0.7198 -0.694182 204.591 235.939)" fill="#5D3BEE"/>
<rect width="423.652" height="37.1214" rx="18.5607" transform="matrix(-0.720068 -0.693903 0.7198 -0.694182 339.329 279.316)" fill="#5D3BEE"/>
<rect width="157.968" height="37.1214" rx="18.5607" transform="matrix(-0.720068 -0.693903 0.7198 -0.694182 240.102 102.145)" fill="#5D3BEE"/>
<rect width="157.968" height="37.1214" rx="18.5607" transform="matrix(-0.720068 -0.693903 0.7198 -0.694182 442.743 299.385)" fill="#5D3BEE"/>
</g>
<g opacity="0.1">
<rect width="63.715" height="37.1214" rx="18.5607" transform="matrix(-0.720068 -0.693903 0.7198 -0.694182 233.536 90.4128)" fill="#5D3BEE"/>
<rect width="168.404" height="37.1214" rx="18.5607" transform="matrix(-0.720068 -0.693903 0.7198 -0.694182 368.591 217.936)" fill="#5D3BEE"/>
<rect width="423.652" height="37.1214" rx="18.5607" transform="matrix(-0.720068 -0.693903 0.7198 -0.694182 503.329 261.313)" fill="#5D3BEE"/>
<rect width="157.968" height="37.1214" rx="18.5607" transform="matrix(-0.720068 -0.693903 0.7198 -0.694182 404.102 84.1414)" fill="#5D3BEE"/>
</g>
</g>
</svg>
